<svg width="10" height="18" viewBox="0 0 10 18" fill="none" xmlns="http://www.w3.org/2000/svg">
<path d="M6.34375 4.075V7.21667H9.5125C9.75625 7.21667 9.87813 7.43333 9.87813 7.65L9.39062 9.70833C9.39062 9.81666 9.14688 9.925 9.025 9.925H6.34375V17.8333H2.6875V10.0333H0.615625C0.371875 10.0333 0.25 9.925 0.25 9.70833V7.65C0.25 7.43333 0.371875 7.325 0.615625 7.325H2.6875V3.75C2.6875 1.90833 4.27187 0.5 6.34375 0.5H9.63438C9.87813 0.5 10 0.608334 10 0.825V3.425C10 3.64167 9.87813 3.75 9.63438 3.75H6.70938C6.46563 3.75 6.34375 3.85833 6.34375 4.075Z" fill="#EE1C0F"/>
</svg>
