<svg width="10" height="18" viewBox="0 0 10 18" fill="none" xmlns="http://www.w3.org/2000/svg">
<path d="M6.09375 3.575V6.71667H9.2625C9.50625 6.71667 9.62813 6.93333 9.62813 7.15L9.14062 9.20833C9.14062 9.31667 8.89688 9.425 8.775 9.425H6.09375V17.3333H2.4375V9.53333H0.365625C0.121875 9.53333 0 9.425 0 9.20833V7.15C0 6.93333 0.121875 6.825 0.365625 6.825H2.4375V3.25C2.4375 1.40833 4.02187 0 6.09375 0H9.38438C9.62813 0 9.75 0.108334 9.75 0.325V2.925C9.75 3.14167 9.62813 3.25 9.38438 3.25H6.45938C6.21563 3.25 6.09375 3.35833 6.09375 3.575Z" fill="#F2E205"/>
</svg>
