<svg width="18" height="18" viewBox="0 0 18 18" fill="none" xmlns="http://www.w3.org/2000/svg">
<path d="M17.9459 5.28937C17.9021 4.33136 17.7499 3.67713 17.5275 3.10474C17.3015 2.5042 16.9472 1.96024 16.4894 1.51062C16.0399 1.05277 15.4958 0.698319 14.8953 0.472275C14.3227 0.249939 13.6686 0.0979157 12.7106 0.0543823C11.7508 0.010437 11.4442 0 9 0C6.55582 0 6.24916 0.010437 5.28937 0.0541077C4.33136 0.0979157 3.67726 0.250076 3.10474 0.47255C2.5042 0.698456 1.96024 1.05277 1.51062 1.51062C1.05276 1.9601 0.698318 2.50406 0.472275 3.1046C0.249939 3.67713 0.0979156 4.33136 0.0543823 5.28923C0.010437 6.24916 0 6.55568 0 8.99987C0 11.4442 0.010437 11.7508 0.0543823 12.7106C0.098053 13.6685 0.250214 14.3227 0.472687 14.8953C0.698593 15.4957 1.0529 16.0398 1.51076 16.4892C1.96024 16.9471 2.50433 17.3014 3.10487 17.5273C3.67726 17.7499 4.3315 17.902 5.28951 17.9458C6.24944 17.9896 6.55595 17.9999 9.00014 17.9999C11.4443 17.9999 11.751 17.9896 12.7108 17.9458C13.6688 17.902 14.3229 17.7499 14.8954 17.5273C16.1043 17.0599 17.06 16.1042 17.5275 14.8953C17.7501 14.3227 17.9021 13.6685 17.9459 12.7106C17.9896 11.7507 18 11.4442 18 9C18 6.55568 17.9896 6.24916 17.9459 5.28937V5.28937ZM16.3258 12.6369C16.2859 13.5144 16.1392 13.991 16.016 14.3081C15.7132 15.093 15.0929 15.7133 14.3079 16.0162C13.9908 16.1393 13.5143 16.286 12.6367 16.326C11.6879 16.3694 11.4033 16.3784 9 16.3784C6.5966 16.3784 6.31206 16.3694 5.36311 16.326C4.48572 16.286 4.00919 16.1393 3.69196 16.0162C3.30112 15.8718 2.94749 15.6418 2.65718 15.3428C2.35822 15.0525 2.12819 14.699 1.98386 14.3081C1.86067 13.991 1.714 13.5144 1.67404 12.6369C1.63078 11.6879 1.62158 11.4033 1.62158 9.00014C1.62158 6.59688 1.63078 6.31233 1.67404 5.36325C1.71414 4.48572 1.86067 4.00919 1.98386 3.69209C2.12819 3.30112 2.35835 2.9475 2.65718 2.65718C2.94749 2.35822 3.30112 2.12819 3.69209 1.98399C4.00919 1.86067 4.48572 1.71414 5.36325 1.67404C6.31219 1.63078 6.59688 1.62158 9 1.62158H8.99986C11.403 1.62158 11.6877 1.63078 12.6367 1.67418C13.5143 1.71414 13.9907 1.86081 14.3079 1.98399C14.6987 2.12833 15.0524 2.35835 15.3427 2.65718C15.6416 2.9475 15.8717 3.30112 16.0159 3.69209C16.1392 4.00919 16.2859 4.48572 16.3258 5.36325C16.3691 6.3122 16.3783 6.59688 16.3783 9C16.3783 11.4033 16.3692 11.6878 16.3258 12.6369Z" fill="#F2E205"/>
<path d="M8.99995 4.37842C6.44755 4.37842 4.37842 6.44769 4.37842 9.00009C4.37842 11.5525 6.44755 13.6216 8.99995 13.6216C11.5525 13.6216 13.6216 11.5525 13.6216 9.00009C13.6216 6.44769 11.5525 4.37842 8.99995 4.37842V4.37842ZM8.99995 12C7.34321 11.9999 6 10.6568 6.00014 8.99995C6.00014 7.34321 7.34321 6 9.00009 6C10.657 6.00014 12 7.34321 12 8.99995C12 10.6568 10.6568 12 8.99995 12V12Z" fill="#F2E205"/>
<path d="M15.16 4.08009C15.16 4.67651 14.6765 5.16005 14.0801 5.16005C13.4835 5.16005 13 4.67651 13 4.08009C13 3.48354 13.4835 3 14.0801 3C14.6765 3 15.16 3.48354 15.16 4.08009V4.08009Z" fill="#F2E205"/>
</svg>
