<svg width="18" height="18" viewBox="0 0 18 18" fill="none" xmlns="http://www.w3.org/2000/svg">
<g clip-path="url(#clip0_75_10)">
<path d="M17.9459 5.28937C17.9021 4.33136 17.7499 3.67713 17.5275 3.10474C17.3015 2.5042 16.9472 1.96024 16.4894 1.51062C16.0399 1.05277 15.4958 0.698319 14.8953 0.472275C14.3227 0.249939 13.6686 0.0979157 12.7106 0.0543823C11.7508 0.010437 11.4442 0 9 0C6.55582 0 6.24916 0.010437 5.28937 0.0541077C4.33136 0.0979157 3.67726 0.250076 3.10474 0.47255C2.5042 0.698456 1.96024 1.05277 1.51062 1.51062C1.05276 1.9601 0.698318 2.50406 0.472275 3.1046C0.249939 3.67713 0.0979156 4.33136 0.0543823 5.28923C0.010437 6.24916 0 6.55568 0 8.99987C0 11.4442 0.010437 11.7508 0.0543823 12.7106C0.098053 13.6685 0.250214 14.3227 0.472687 14.8953C0.698593 15.4957 1.0529 16.0398 1.51076 16.4893C1.96024 16.9471 2.50433 17.3014 3.10487 17.5273C3.67726 17.7499 4.3315 17.902 5.28951 17.9458C6.24944 17.9896 6.55595 17.9999 9.00014 17.9999C11.4443 17.9999 11.751 17.9896 12.7108 17.9458C13.6688 17.902 14.3229 17.7499 14.8954 17.5273C16.1043 17.0599 17.06 16.1042 17.5275 14.8953C17.7501 14.3227 17.9021 13.6685 17.9459 12.7106C17.9896 11.7507 18 11.4442 18 9C18 6.55568 17.9896 6.24916 17.9459 5.28937ZM16.3258 12.6369C16.2859 13.5144 16.1392 13.991 16.016 14.3081C15.7132 15.093 15.0929 15.7133 14.3079 16.0162C13.9908 16.1393 13.5143 16.286 12.6367 16.326C11.6879 16.3694 11.4033 16.3784 9 16.3784C6.5966 16.3784 6.31206 16.3694 5.36311 16.326C4.48572 16.286 4.00919 16.1393 3.69196 16.0162C3.30112 15.8718 2.94749 15.6418 2.65718 15.3428C2.35822 15.0525 2.12819 14.699 1.98386 14.3081C1.86067 13.991 1.714 13.5144 1.67404 12.6369C1.63078 11.6879 1.62158 11.4033 1.62158 9.00014C1.62158 6.59688 1.63078 6.31234 1.67404 5.36325C1.71414 4.48572 1.86067 4.00919 1.98386 3.69209C2.12819 3.30112 2.35835 2.9475 2.65718 2.65718C2.94749 2.35822 3.30112 2.12819 3.69209 1.98399C4.00919 1.86067 4.48572 1.71414 5.36325 1.67404C6.31219 1.63078 6.59688 1.62158 9 1.62158H8.99986C11.403 1.62158 11.6877 1.63078 12.6367 1.67418C13.5143 1.71414 13.9907 1.86081 14.3079 1.98399C14.6987 2.12833 15.0524 2.35835 15.3427 2.65718C15.6416 2.9475 15.8717 3.30112 16.0159 3.69209C16.1392 4.00919 16.2859 4.48572 16.3258 5.36325C16.3691 6.3122 16.3783 6.59688 16.3783 9C16.3783 11.4033 16.3692 11.6878 16.3258 12.6369Z" fill="#EE1C0F"/>
<path d="M8.99983 4.37833C6.44743 4.37833 4.3783 6.4476 4.3783 9C4.3783 11.5524 6.44743 13.6215 8.99983 13.6215C11.5524 13.6215 13.6215 11.5524 13.6215 9C13.6215 6.4476 11.5524 4.37833 8.99983 4.37833ZM8.99983 11.9999C7.34309 11.9998 5.99988 10.6567 6.00001 8.99986C6.00001 7.34312 7.34309 5.99991 8.99997 5.99991C10.6568 6.00004 11.9999 7.34312 11.9999 8.99986C11.9999 10.6567 10.6567 11.9999 8.99983 11.9999Z" fill="#EE1C0F"/>
<path d="M14.8842 4.19582C14.8842 4.79224 14.4006 5.27577 13.8042 5.27577C13.2077 5.27577 12.7241 4.79224 12.7241 4.19582C12.7241 3.59926 13.2077 3.11572 13.8042 3.11572C14.4006 3.11572 14.8842 3.59926 14.8842 4.19582Z" fill="#EE1C0F"/>
</g>
<defs>
<clipPath id="clip0_75_10">
<rect width="18" height="18" fill="white"/>
</clipPath>
</defs>
</svg>
