<svg width="18" height="18" viewBox="0 0 18 18" fill="none" xmlns="http://www.w3.org/2000/svg">
<path d="M0 17.2339L1.21179 12.8088C0.46431 11.5136 0.0711366 10.0445 0.0716859 8.53938C0.0736085 3.83079 3.90537 0 8.61384 0C10.8987 0.00096131 13.0434 0.890303 14.6562 2.50447C16.2688 4.11863 17.1567 6.26425 17.1559 8.54625C17.1538 13.2547 13.3215 17.086 8.61384 17.086C8.61357 17.086 8.61398 17.086 8.61384 17.086H8.61013C7.18054 17.0855 5.77593 16.7269 4.5283 16.0465L0 17.2339ZM4.738 14.5005L4.99741 14.6542C6.08726 15.301 7.33682 15.6431 8.61109 15.6438H8.61384C12.5269 15.6438 15.7118 12.4594 15.7135 8.5457C15.7142 6.64905 14.9764 4.86556 13.636 3.52399C12.2954 2.18243 10.513 1.44319 8.61645 1.44236C4.70023 1.44236 1.51543 4.62633 1.51392 8.53993C1.51337 9.88108 1.88855 11.1871 2.59937 12.3173L2.76828 12.5859L2.05088 15.205L4.738 14.5005Z" fill="#F2E205"/>
<path fill-rule="evenodd" clip-rule="evenodd" d="M6.47883 4.96952C6.31898 4.61411 6.15062 4.60697 5.99845 4.60079C5.87403 4.59543 5.73163 4.59571 5.58949 4.59571C5.44722 4.59571 5.21596 4.64926 5.0204 4.86281C4.82471 5.07636 4.27319 5.59272 4.27319 6.64288C4.27319 7.69318 5.03811 8.70791 5.14482 8.85046C5.25152 8.99287 6.62138 11.2168 8.79076 12.0723C10.5938 12.7834 10.9606 12.642 11.3519 12.6064C11.7433 12.5709 12.6147 12.0901 12.7925 11.5917C12.9705 11.0933 12.9705 10.6662 12.9171 10.5768C12.8637 10.488 12.7214 10.4346 12.508 10.3278C12.2946 10.2211 11.2452 9.70465 11.0495 9.63351C10.8539 9.56224 10.7116 9.52681 10.5693 9.74049C10.4269 9.9539 10.0182 10.4346 9.89365 10.5768C9.76909 10.7195 9.64453 10.7374 9.43113 10.6305C9.21772 10.5235 8.53025 10.2983 7.71479 9.57116C7.08033 9.0055 6.65187 8.30677 6.52731 8.09308C6.40289 7.87967 6.52525 7.7742 6.6211 7.65761C6.79373 7.44763 7.08335 7.07011 7.15449 6.92784C7.22562 6.78529 7.19006 6.66073 7.13677 6.55389C7.08335 6.44719 6.66848 5.39167 6.47883 4.96952V4.96952Z" fill="#F2E205"/>
</svg>
