<svg width="11" height="14" viewBox="0 0 11 14" fill="none" xmlns="http://www.w3.org/2000/svg">
<path d="M5.33163 0C2.38705 0 0 2.38705 0 5.33163C0 9.47698 3.36559 9.44366 4.172 11.8496L4.51189 12.8759C4.60719 13.1594 4.87968 13.3447 5.17835 13.3291H5.55156C5.85024 13.3447 6.12272 13.1594 6.21802 12.8759L6.55791 11.8496C7.331 9.44366 10.6633 9.47698 10.6633 5.33163C10.6633 2.38705 8.27621 0 5.33163 0ZM5.33163 7.331C4.22742 7.331 3.33227 6.43585 3.33227 5.33163C3.33227 4.22742 4.22742 3.33227 5.33163 3.33227C6.43585 3.33227 7.331 4.22742 7.331 5.33163C7.331 5.8619 7.12035 6.37044 6.7454 6.7454C6.37044 7.12035 5.8619 7.331 5.33163 7.331Z" fill="#B60D12"/>
</svg>
