<svg width="18" height="18" viewBox="0 0 18 18" fill="none" xmlns="http://www.w3.org/2000/svg">
<g clip-path="url(#clip0_76_25)">
<path d="M0.418152 17.617L1.62995 13.1918C0.882462 11.8967 0.489288 10.4275 0.489838 8.92241C0.49176 4.21381 4.32352 0.383026 9.03199 0.383026C11.3169 0.383987 13.4615 1.27333 15.0743 2.88749C16.687 4.50165 17.5748 6.64728 17.574 8.92927C17.5719 13.6377 13.7396 17.4691 9.03199 17.4691C9.03172 17.4691 9.03213 17.4691 9.03199 17.4691H9.02829C7.59869 17.4685 6.19408 17.1099 4.94645 16.4295L0.418152 17.617ZM5.15615 14.8836L5.41556 15.0372C6.50541 15.6841 7.75497 16.0261 9.02925 16.0268H9.03199C12.9451 16.0268 16.13 12.8425 16.1316 8.92872C16.1323 7.03207 15.3946 5.24859 14.0541 3.90702C12.7135 2.56546 10.9311 1.82621 9.0346 1.82539C5.11838 1.82539 1.93358 5.00936 1.93207 8.92295C1.93152 10.2641 2.3067 11.5701 3.01752 12.7003L3.18644 12.9689L2.46903 15.5881L5.15615 14.8836Z" fill="#EE1C0F"/>
<path d="M0.71521 17.3188L1.88512 13.0467C1.16331 11.7964 0.783874 10.378 0.784286 8.92516C0.786072 4.37956 4.4853 0.681427 9.03048 0.681427C11.2365 0.682388 13.307 1.54097 14.8637 3.09924C16.4207 4.65752 17.2776 6.72885 17.2768 8.93161C17.2749 13.4773 13.5755 17.1759 9.03089 17.1759H9.02718C7.64717 17.1753 6.29104 16.829 5.08667 16.1726L0.71521 17.3188Z" fill="#F2E205"/>
<path d="M0.418152 17.617L1.62995 13.1918C0.882462 11.8967 0.489288 10.4275 0.489838 8.92241C0.49176 4.21381 4.32352 0.383026 9.03199 0.383026C11.3169 0.383987 13.4615 1.27333 15.0743 2.88749C16.687 4.50165 17.5748 6.64728 17.574 8.92927C17.5719 13.6377 13.7396 17.4691 9.03199 17.4691C9.03172 17.4691 9.03213 17.4691 9.03199 17.4691H9.02829C7.59869 17.4685 6.19408 17.1099 4.94645 16.4295L0.418152 17.617ZM5.15615 14.8836L5.41556 15.0372C6.50541 15.6841 7.75497 16.0261 9.02925 16.0268H9.03199C12.9451 16.0268 16.13 12.8425 16.1316 8.92872C16.1323 7.03207 15.3946 5.24859 14.0541 3.90702C12.7135 2.56546 10.9311 1.82621 9.0346 1.82539C5.11838 1.82539 1.93358 5.00936 1.93207 8.92295C1.93152 10.2641 2.3067 11.5701 3.01752 12.7003L3.18644 12.9689L2.46903 15.5881L5.15615 14.8836Z" fill="#EE1C0F"/>
<path fill-rule="evenodd" clip-rule="evenodd" d="M6.89704 5.35242C6.73719 4.99701 6.56883 4.98987 6.41667 4.98369C6.29225 4.97833 6.14984 4.97861 6.0077 4.97861C5.86543 4.97861 5.63417 5.03217 5.43861 5.24572C5.24292 5.45926 4.69141 5.97562 4.69141 7.02578C4.69141 8.07608 5.45633 9.09081 5.56303 9.23336C5.66974 9.37577 7.03959 11.5997 9.20897 12.4553C11.012 13.1663 11.3788 13.0249 11.7702 12.9893C12.1615 12.9538 13.0329 12.473 13.2107 11.9746C13.3887 11.4762 13.3887 11.0491 13.3353 10.9597C13.2819 10.8709 13.1396 10.8175 12.9262 10.7108C12.7128 10.604 11.6635 10.0876 11.4678 10.0164C11.2721 9.94514 11.1298 9.90971 10.9875 10.1234C10.8451 10.3368 10.4364 10.8175 10.3119 10.9597C10.1873 11.1024 10.0627 11.1203 9.84934 11.0134C9.63593 10.9064 8.94846 10.6812 8.133 9.95407C7.49854 9.38841 7.07008 8.68967 6.94552 8.47599C6.8211 8.26258 6.94346 8.15711 7.03932 8.04051C7.21194 7.83054 7.50156 7.45302 7.5727 7.31074C7.64384 7.1682 7.60827 7.04364 7.55499 6.93679C7.50156 6.83009 7.08669 5.77457 6.89704 5.35242Z" fill="#EE1C0F"/>
</g>
<defs>
<clipPath id="clip0_76_25">
<rect width="18" height="18" fill="white"/>
</clipPath>
</defs>
</svg>
