<svg width="28" height="28" viewBox="0 0 28 28" fill="none" xmlns="http://www.w3.org/2000/svg">
<g clip-path="url(#clip0_21_99)">
<path d="M19.8333 24.5001C17.904 24.4984 16.0047 24.0216 14.3033 23.1117L13.7783 22.8201C10.1509 20.8698 7.17698 17.8959 5.22667 14.2684L4.935 13.7434C4.00146 12.0323 3.50832 10.1159 3.5 8.16674V7.38507C3.49951 6.76319 3.74729 6.16683 4.18833 5.7284L6.16 3.75674C6.35148 3.56377 6.62177 3.47076 6.89145 3.50504C7.16113 3.53932 7.39956 3.697 7.53667 3.93174L10.1617 8.43507C10.4271 8.89344 10.3505 9.47312 9.975 9.84674L7.77 12.0517C7.58689 12.2328 7.54421 12.5126 7.665 12.7401L8.07333 13.5101C9.53988 16.2266 11.7708 18.4535 14.49 19.9151L15.26 20.3351C15.4875 20.4559 15.7672 20.4132 15.9483 20.2301L18.1533 18.0251C18.527 17.6496 19.1066 17.573 19.565 17.8384L24.0683 20.4634C24.3031 20.6005 24.4608 20.8389 24.495 21.1086C24.5293 21.3783 24.4363 21.6486 24.2433 21.8401L22.2717 23.8117C21.8332 24.2528 21.2369 24.5006 20.615 24.5001H19.8333Z" fill="#F2E205"/>
</g>
<defs>
<clipPath id="clip0_21_99">
<rect width="28" height="28" fill="white"/>
</clipPath>
</defs>
</svg>
