<svg width="24" height="24" viewBox="0 0 24 24" fill="none" xmlns="http://www.w3.org/2000/svg">
<g clip-path="url(#clip0_240_18)">
<path d="M12 2C7.58172 2 4 5.58172 4 10C4 16.22 9.05 16.17 10.26 19.78L10.77 21.32C10.913 21.7454 11.3218 22.0234 11.77 22H12.33C12.7782 22.0234 13.187 21.7454 13.33 21.32L13.84 19.78C15 16.17 20 16.22 20 10C20 5.58172 16.4183 2 12 2ZM12 13C10.3431 13 9 11.6569 9 10C9 8.34315 10.3431 7 12 7C13.6569 7 15 8.34315 15 10C15 10.7956 14.6839 11.5587 14.1213 12.1213C13.5587 12.6839 12.7956 13 12 13Z" fill="#F2E205"/>
</g>
<defs>
<clipPath id="clip0_240_18">
<rect width="24" height="24" fill="white"/>
</clipPath>
</defs>
</svg>
