<svg width="20" height="20" viewBox="0 0 20 20" fill="none" xmlns="http://www.w3.org/2000/svg">
<g clip-path="url(#clip0_241_30)">
<path d="M0.4646 19.5744L1.81104 14.6575C0.9805 13.2185 0.54364 11.5861 0.544251 9.91374C0.546387 4.68197 4.8039 0.425537 10.0355 0.425537C12.5743 0.426605 14.9573 1.41476 16.7493 3.20828C18.5411 5.00179 19.5276 7.38582 19.5267 9.92137C19.5244 15.153 15.2663 19.41 10.0355 19.41C10.0352 19.41 10.0357 19.41 10.0355 19.41H10.0314C8.44297 19.4094 6.8823 19.011 5.49604 18.2549L0.4646 19.5744ZM5.72904 16.5373L6.01728 16.708C7.22822 17.4267 8.61662 17.8068 10.0325 17.8075H10.0355C14.3834 17.8075 17.9222 14.2693 17.924 9.92076C17.9248 7.81337 17.1051 5.83171 15.6157 4.34109C14.1261 2.85046 12.1457 2.02908 10.0384 2.02816C5.68708 2.02816 2.14841 5.56591 2.14673 9.91435C2.14612 11.4045 2.56299 12.8556 3.35279 14.1114L3.54047 14.4099L2.74335 17.32L5.72904 16.5373Z" fill="#F2E205"/>
<path d="M0.4646 19.5706L1.81077 14.6547C0.980399 13.216 0.543625 11.5839 0.544235 9.91188C0.546371 4.68113 4.80305 0.425537 10.0337 0.425537C12.5719 0.426605 14.9544 1.41457 16.7461 3.20773C18.5376 5.00089 19.5238 7.38445 19.5229 9.9195C19.5206 15.1501 15.2634 19.4063 10.0337 19.4063C10.0334 19.4063 10.0338 19.4063 10.0337 19.4063H10.0295C8.44141 19.4057 6.88104 19.0074 5.49505 18.2514L0.4646 19.5706ZM5.72801 16.5341L6.01619 16.7048C7.22689 17.4234 8.61502 17.8034 10.0306 17.8041H10.0337C14.3807 17.8041 17.9188 14.2666 17.9206 9.91889C17.9214 7.81192 17.1018 5.83065 15.6127 4.34032C14.1234 2.84998 12.1434 2.02877 10.0366 2.02785C5.68606 2.02785 2.14808 5.5649 2.1464 9.91249C2.14579 11.4024 2.56258 12.8532 3.35222 14.1087L3.53987 14.4071L2.7429 17.3167L5.72801 16.5341Z" fill="#F2E205"/>
<path fill-rule="evenodd" clip-rule="evenodd" d="M7.6619 5.94603C7.48432 5.55121 7.29729 5.54327 7.12825 5.53641C6.99003 5.53046 6.83183 5.53076 6.67393 5.53076C6.51589 5.53076 6.25898 5.59026 6.04174 5.82749C5.82434 6.06472 5.21167 6.63834 5.21167 7.80496C5.21167 8.97173 6.06142 10.099 6.17995 10.2573C6.29849 10.4155 7.82025 12.8861 10.2302 13.8365C12.2331 14.6265 12.6406 14.4693 13.0754 14.4298C13.5102 14.3903 14.4782 13.8562 14.6757 13.3026C14.8734 12.7489 14.8734 12.2745 14.8141 12.1752C14.7548 12.0764 14.5967 12.0171 14.3596 11.8986C14.1226 11.78 12.9569 11.2063 12.7395 11.1272C12.5221 11.0481 12.364 11.0087 12.206 11.2461C12.0478 11.4831 11.5938 12.0171 11.4554 12.1752C11.317 12.3337 11.1787 12.3535 10.9416 12.2348C10.7045 12.116 9.9408 11.8658 9.03492 11.058C8.3301 10.4296 7.85412 9.65336 7.71575 9.41598C7.57753 9.1789 7.71346 9.06174 7.81995 8.93221C8.01171 8.69895 8.33346 8.27957 8.41248 8.12152C8.49151 7.96316 8.45199 7.82479 8.3928 7.7061C8.33346 7.58756 7.87258 6.41499 7.6619 5.94603V5.94603Z" fill="#F2E205"/>
</g>
<defs>
<clipPath id="clip0_241_30">
<rect width="20" height="20" fill="white"/>
</clipPath>
</defs>
</svg>
